<svg xmlns="http://www.w3.org/2000/svg" width="1000" height="600" version="1.0"><path style="opacity:1;fill:#ef3e42;fill-opacity:1;stroke:none;stroke-width:5;stroke-linecap:round;stroke-linejoin:round;stroke-miterlimit:4;stroke-dasharray:none;stroke-opacity:1" d="M0 0h250v600H0z"/><path style="opacity:1;fill:#00548f;fill-opacity:1;stroke:none;stroke-width:5;stroke-linecap:round;stroke-linejoin:round;stroke-miterlimit:4;stroke-dasharray:none;stroke-opacity:1" d="M500 0h500v600H500z"/><path style="opacity:1;fill:#ffd046;fill-opacity:1;stroke:none;stroke-width:5;stroke-linecap:round;stroke-linejoin:round;stroke-miterlimit:4;stroke-dasharray:none;stroke-opacity:1" d="M250 0h250v600H250z"/><path style="opacity:1;fill:#fff;fill-opacity:1;stroke:none;stroke-width:5;stroke-linecap:round;stroke-linejoin:round;stroke-miterlimit:4;stroke-dasharray:none;stroke-opacity:1" d="m213.87598 263.12413 10.52522 32.38914 34.05637.00129-27.55142 20.01888 10.52277 32.38993-27.55294-20.01679-27.55295 20.01679 10.52278-32.38993-27.55143-20.01888 34.05637-.00129 10.52523-32.38914z" transform="translate(324.44039 14.395822) scale(1.12012)"/><path transform="translate(454.207862 -26.697188) scale(1.12012)" d="m213.87598 263.12413 10.52522 32.38914 34.05637.00129-27.55142 20.01888 10.52277 32.38993-27.55294-20.01679-27.55295 20.01679 10.52278-32.38993-27.55143-20.01888 34.05637-.00129 10.52523-32.38914z" style="opacity:1;fill:#fff;fill-opacity:1;stroke:none;stroke-width:5;stroke-linecap:round;stroke-linejoin:round;stroke-miterlimit:4;stroke-dasharray:none;stroke-opacity:1"/><path style="opacity:1;fill:#fff;fill-opacity:1;stroke:none;stroke-width:5;stroke-linecap:round;stroke-linejoin:round;stroke-miterlimit:4;stroke-dasharray:none;stroke-opacity:1" d="m213.87598 263.12413 10.52522 32.38914 34.05637.00129-27.55142 20.01888 10.52277 32.38993-27.55294-20.01679-27.55295 20.01679 10.52278-32.38993-27.55143-20.01888 34.05637-.00129 10.52523-32.38914z" transform="translate(575.324138 -95.906486) scale(1.12012)"/><path transform="translate(663.998564 -182.418113) scale(1.12012)" d="m213.87598 263.12413 10.52522 32.38914 34.05637.00129-27.55142 20.01888 10.52277 32.38993-27.55294-20.01679-27.55295 20.01679 10.52278-32.38993-27.55143-20.01888 34.05637-.00129 10.52523-32.38914z" style="opacity:1;fill:#fff;fill-opacity:1;stroke:none;stroke-width:5;stroke-linecap:round;stroke-linejoin:round;stroke-miterlimit:4;stroke-dasharray:none;stroke-opacity:1"/><path style="opacity:1;fill:#fff;fill-opacity:1;stroke:none;stroke-width:5;stroke-linecap:round;stroke-linejoin:round;stroke-miterlimit:4;stroke-dasharray:none;stroke-opacity:1" d="m213.87598 263.12413 10.52522 32.38914 34.05637.00129-27.55142 20.01888 10.52277 32.38993-27.55294-20.01679-27.55295 20.01679 10.52278-32.38993-27.55143-20.01888 34.05637-.00129 10.52523-32.38914z" transform="translate(480.16136 87.930736) scale(1.12012)"/><path transform="translate(596.952056 29.535388) scale(1.12012)" d="m213.87598 263.12413 10.52522 32.38914 34.05637.00129-27.55142 20.01888 10.52277 32.38993-27.55294-20.01679-27.55295 20.01679 10.52278-32.38993-27.55143-20.01888 34.05637-.00129 10.52523-32.38914z" style="opacity:1;fill:#fff;fill-opacity:1;stroke:none;stroke-width:5;stroke-linecap:round;stroke-linejoin:round;stroke-miterlimit:4;stroke-dasharray:none;stroke-opacity:1"/><path style="opacity:1;fill:#fff;fill-opacity:1;stroke:none;stroke-width:5;stroke-linecap:round;stroke-linejoin:round;stroke-miterlimit:4;stroke-dasharray:none;stroke-opacity:1" d="m213.87598 263.12413 10.52522 32.38914 34.05637.00129-27.55142 20.01888 10.52277 32.38993-27.55294-20.01679-27.55295 20.01679 10.52278-32.38993-27.55143-20.01888 34.05637-.00129 10.52523-32.38914z" transform="translate(696.440432 -59.139038) scale(1.12012)"/></svg>